# xmcd
#
# Track frame offsets:
#	150
#	11779
#	22717
#	33251
#	42682
#	53917
#	65950
#	74744
#	84563
#	95571
#	105288
#	116386
#	128354
#	139223
#	150104
#	159374
#	167810
#	181140
#	193006
#	206712
#	216927
#	230451
#	241773
#	253837
#	264445
#	277120
#
# Disc length: 3842 seconds
#
# Revision: 0
# Processed by: cddbd v1.5.2PL0 Copyright (c) Steve Scherf et al.
# Submitted via: EasyCDDAExtractor 10.0.2.1
#
DISCID=6c0f001a
DTITLE=Billy Walker - Cross The Brazos At Waco - CD 4
DYEAR=1993
DGENRE=Country
TTITLE0=Anything Your Heart Desires
TTITLE1=I Care No More
TTITLE2=The Image Of Me
TTITLE3=I Need It
TTITLE4=Where My Baby Goes (She Goes With Me)
TTITLE5=Put Your Hand In Mine
TTITLE6=It'll Take Awhile
TTITLE7=It's Doggone Togh On Me
TTITLE8=Ghost Of A Promise
TTITLE9=Love's Got A Hold Of Me
TTITLE10=I Dreamed Of An Old Love Affair
TTITLE11=Mr  Heartache
TTITLE12=I Thought About You
TTITLE13=The Storm Within My Heart
TTITLE14=One Way Give And Take
TTITLE15=A Woman Like You
TTITLE16=I Call It Heaven (& Ray Price)
TTITLE17=Forever
TTITLE18=Farewell Party
TTITLE19=Changed My Mind
TTITLE20=Gotta Find A Way
TTITLE21=I'll Be True To You
TTITLE22=Little Lover
TTITLE23=I Wish You Love
TTITLE24=Yes. I've Made It
TTITLE25=Faded Lights And Lonesome People
EXTD=
EXTT0=
EXTT1=
EXTT2=
EXTT3=
EXTT4=
EXTT5=
EXTT6=
EXTT7=
EXTT8=
EXTT9=
EXTT10=
EXTT11=
EXTT12=
EXTT13=
EXTT14=
EXTT15=
EXTT16=
EXTT17=
EXTT18=
EXTT19=
EXTT20=
EXTT21=
EXTT22=
EXTT23=
EXTT24=
EXTT25=
PLAYORDER=
